<svg width="127" height="14" viewBox="0 0 127 14" fill="none" xmlns="http://www.w3.org/2000/svg">
<path d="M5.53482 12.168C4.57349 12.168 3.74282 11.958 3.04282 11.538C2.35215 11.1087 1.81549 10.516 1.43282 9.76C1.05015 8.99467 0.858821 8.108 0.858821 7.1C0.858821 6.10133 1.05015 5.224 1.43282 4.468C1.81549 3.70267 2.35215 3.10533 3.04282 2.676C3.74282 2.24667 4.57349 2.032 5.53482 2.032C6.65482 2.032 7.56482 2.30267 8.26482 2.844C8.97415 3.376 9.42682 4.12267 9.62282 5.084H8.32082C8.17149 4.47733 7.86349 3.992 7.39682 3.628C6.93949 3.25467 6.31882 3.068 5.53482 3.068C4.83482 3.068 4.22349 3.23133 3.70082 3.558C3.17815 3.87533 2.77215 4.33733 2.48282 4.944C2.20282 5.54133 2.06282 6.26 2.06282 7.1C2.06282 7.94 2.20282 8.66333 2.48282 9.27C2.77215 9.86733 3.17815 10.3293 3.70082 10.656C4.22349 10.9733 4.83482 11.132 5.53482 11.132C6.31882 11.132 6.93949 10.9547 7.39682 10.6C7.86349 10.236 8.17149 9.75533 8.32082 9.158H9.62282C9.42682 10.1007 8.97415 10.838 8.26482 11.37C7.56482 11.902 6.65482 12.168 5.53482 12.168ZM16.745 12.168C15.7837 12.168 14.939 11.958 14.211 11.538C13.4923 11.1087 12.9277 10.5113 12.517 9.746C12.1157 8.98067 11.915 8.09867 11.915 7.1C11.915 6.10133 12.1157 5.224 12.517 4.468C12.9277 3.70267 13.4923 3.10533 14.211 2.676C14.939 2.24667 15.7837 2.032 16.745 2.032C17.7157 2.032 18.5603 2.24667 19.279 2.676C20.007 3.10533 20.5717 3.70267 20.973 4.468C21.3743 5.224 21.575 6.10133 21.575 7.1C21.575 8.09867 21.3743 8.98067 20.973 9.746C20.5717 10.5113 20.007 11.1087 19.279 11.538C18.5603 11.958 17.7157 12.168 16.745 12.168ZM16.745 11.132C17.4637 11.132 18.0937 10.9733 18.635 10.656C19.1857 10.3293 19.6103 9.86733 19.909 9.27C20.217 8.66333 20.371 7.94 20.371 7.1C20.371 6.26 20.217 5.54133 19.909 4.944C19.6103 4.34667 19.1857 3.88933 18.635 3.572C18.0937 3.24533 17.4637 3.082 16.745 3.082C16.0263 3.082 15.3917 3.24533 14.841 3.572C14.2997 3.88933 13.875 4.34667 13.567 4.944C13.2683 5.54133 13.119 6.26 13.119 7.1C13.119 7.94 13.2683 8.66333 13.567 9.27C13.875 9.86733 14.2997 10.3293 14.841 10.656C15.3917 10.9733 16.0263 11.132 16.745 11.132ZM24.2515 12V2.2H25.6235L29.1515 9.032L32.6515 2.2H34.0375V12H32.8615V4.3L29.5855 10.6H28.7035L25.4275 4.314V12H24.2515ZM37.085 12V2.2H38.261V12H37.085ZM41.3189 12V2.2H42.4949L47.7169 10.054V2.2H48.8929V12H47.7169L42.4949 4.146V12H41.3189ZM56.1653 12.168C55.2506 12.168 54.4479 11.958 53.7573 11.538C53.0666 11.1087 52.5299 10.516 52.1473 9.76C51.7646 8.99467 51.5733 8.11267 51.5733 7.114C51.5733 6.11533 51.7646 5.23333 52.1473 4.468C52.5393 3.70267 53.0899 3.10533 53.7993 2.676C54.5179 2.24667 55.3626 2.032 56.3333 2.032C57.4346 2.032 58.3493 2.298 59.0773 2.83C59.8146 3.362 60.2906 4.09467 60.5053 5.028H59.1473C59.0166 4.44 58.7039 3.97333 58.2093 3.628C57.7239 3.28267 57.0986 3.11 56.3333 3.11C55.6146 3.11 54.9893 3.27333 54.4573 3.6C53.9253 3.91733 53.5099 4.37467 53.2113 4.972C52.9219 5.56933 52.7773 6.28333 52.7773 7.114C52.7773 7.94467 52.9219 8.65867 53.2113 9.256C53.5006 9.85333 53.9019 10.3153 54.4153 10.642C54.9286 10.9593 55.5259 11.118 56.2073 11.118C57.2526 11.118 58.0413 10.8147 58.5733 10.208C59.1053 9.592 59.4086 8.752 59.4833 7.688H56.6553V6.764H60.6873V12H59.6093L59.5113 10.39C59.1566 10.9593 58.7226 11.398 58.2093 11.706C57.6959 12.014 57.0146 12.168 56.1653 12.168ZM71.3341 12.168C70.6154 12.168 69.9901 12.0373 69.4581 11.776C68.9261 11.5147 68.5154 11.1507 68.2261 10.684C67.9367 10.2173 67.7921 9.676 67.7921 9.06H69.0241C69.0241 9.44267 69.1127 9.79733 69.2901 10.124C69.4674 10.4413 69.7241 10.698 70.0601 10.894C70.4054 11.0807 70.8301 11.174 71.3341 11.174C71.9967 11.174 72.5101 11.0153 72.8741 10.698C73.2381 10.3807 73.4201 9.984 73.4201 9.508C73.4201 9.116 73.3361 8.80333 73.1681 8.57C73.0001 8.32733 72.7714 8.13133 72.4821 7.982C72.2021 7.83267 71.8754 7.702 71.5021 7.59C71.1381 7.478 70.7554 7.352 70.3541 7.212C69.5981 6.95067 69.0381 6.62867 68.6741 6.246C68.3101 5.854 68.1281 5.34533 68.1281 4.72C68.1187 4.19733 68.2401 3.73533 68.4921 3.334C68.7441 2.92333 69.0987 2.606 69.5561 2.382C70.0227 2.14867 70.5734 2.032 71.2081 2.032C71.8334 2.032 72.3747 2.14867 72.8321 2.382C73.2987 2.61533 73.6581 2.93733 73.9101 3.348C74.1714 3.75867 74.3067 4.22533 74.3161 4.748H73.0841C73.0841 4.47733 73.0141 4.21133 72.8741 3.95C72.7341 3.67933 72.5194 3.46 72.2301 3.292C71.9501 3.124 71.5954 3.04 71.1661 3.04C70.6341 3.03067 70.1954 3.166 69.8501 3.446C69.5141 3.726 69.3461 4.11333 69.3461 4.608C69.3461 5.028 69.4627 5.35 69.6961 5.574C69.9387 5.798 70.2747 5.98467 70.7041 6.134C71.1334 6.274 71.6281 6.43733 72.1881 6.624C72.6547 6.792 73.0747 6.988 73.4481 7.212C73.8214 7.436 74.1107 7.72533 74.3161 8.08C74.5307 8.43467 74.6381 8.88733 74.6381 9.438C74.6381 9.90467 74.5167 10.348 74.2741 10.768C74.0314 11.1787 73.6627 11.5147 73.1681 11.776C72.6827 12.0373 72.0714 12.168 71.3341 12.168ZM81.7378 12.168C80.7765 12.168 79.9318 11.958 79.2038 11.538C78.4851 11.1087 77.9205 10.5113 77.5098 9.746C77.1085 8.98067 76.9078 8.09867 76.9078 7.1C76.9078 6.10133 77.1085 5.224 77.5098 4.468C77.9205 3.70267 78.4851 3.10533 79.2038 2.676C79.9318 2.24667 80.7765 2.032 81.7378 2.032C82.7085 2.032 83.5531 2.24667 84.2718 2.676C84.9998 3.10533 85.5645 3.70267 85.9658 4.468C86.3671 5.224 86.5678 6.10133 86.5678 7.1C86.5678 8.09867 86.3671 8.98067 85.9658 9.746C85.5645 10.5113 84.9998 11.1087 84.2718 11.538C83.5531 11.958 82.7085 12.168 81.7378 12.168ZM81.7378 11.132C82.4565 11.132 83.0865 10.9733 83.6278 10.656C84.1785 10.3293 84.6031 9.86733 84.9018 9.27C85.2098 8.66333 85.3638 7.94 85.3638 7.1C85.3638 6.26 85.2098 5.54133 84.9018 4.944C84.6031 4.34667 84.1785 3.88933 83.6278 3.572C83.0865 3.24533 82.4565 3.082 81.7378 3.082C81.0191 3.082 80.3845 3.24533 79.8338 3.572C79.2925 3.88933 78.8678 4.34667 78.5598 4.944C78.2611 5.54133 78.1118 6.26 78.1118 7.1C78.1118 7.94 78.2611 8.66333 78.5598 9.27C78.8678 9.86733 79.2925 10.3293 79.8338 10.656C80.3845 10.9733 81.0191 11.132 81.7378 11.132ZM93.6963 12.168C92.735 12.168 91.8903 11.958 91.1623 11.538C90.4437 11.1087 89.879 10.5113 89.4683 9.746C89.067 8.98067 88.8663 8.09867 88.8663 7.1C88.8663 6.10133 89.067 5.224 89.4683 4.468C89.879 3.70267 90.4437 3.10533 91.1623 2.676C91.8903 2.24667 92.735 2.032 93.6963 2.032C94.667 2.032 95.5117 2.24667 96.2303 2.676C96.9583 3.10533 97.523 3.70267 97.9243 4.468C98.3257 5.224 98.5263 6.10133 98.5263 7.1C98.5263 8.09867 98.3257 8.98067 97.9243 9.746C97.523 10.5113 96.9583 11.1087 96.2303 11.538C95.5117 11.958 94.667 12.168 93.6963 12.168ZM93.6963 11.132C94.415 11.132 95.045 10.9733 95.5863 10.656C96.137 10.3293 96.5617 9.86733 96.8603 9.27C97.1683 8.66333 97.3223 7.94 97.3223 7.1C97.3223 6.26 97.1683 5.54133 96.8603 4.944C96.5617 4.34667 96.137 3.88933 95.5863 3.572C95.045 3.24533 94.415 3.082 93.6963 3.082C92.9777 3.082 92.343 3.24533 91.7923 3.572C91.251 3.88933 90.8263 4.34667 90.5183 4.944C90.2197 5.54133 90.0703 6.26 90.0703 7.1C90.0703 7.94 90.2197 8.66333 90.5183 9.27C90.8263 9.86733 91.251 10.3293 91.7923 10.656C92.343 10.9733 92.9777 11.132 93.6963 11.132ZM101.203 12V2.2H102.379L107.601 10.054V2.2H108.777V12H107.601L102.379 4.146V12H101.203Z" fill="#898A8C"/>
<g clip-path="url(#clip0_18_968)">
<path d="M113.412 7.84532L115.2 6.08438L118.242 5.54517L117.942 7.13767L113.828 8.40204L113.562 8.2872L113.412 7.84532Z" fill="#CA2C31"/>
<path d="M115.509 6.53622L113.569 8.29935L114.996 8.99497L117.163 7.88919V7.36747L117.606 6.1731L115.509 6.53622Z" fill="#A02422"/>
<path d="M120.101 9.64129L119.163 10.0482L118.279 11.9239C118.279 11.9239 119.057 13.6488 119.092 13.6488C119.127 13.6488 119.57 13.6838 119.57 13.6838L121.145 11.9229L121.543 8.91504L120.101 9.64129Z" fill="#A02422"/>
<path d="M119.18 11.0294C119.18 11.0294 119.701 10.9233 120.073 10.7461C120.445 10.5689 120.905 10.3042 120.905 10.3042L120.736 11.7731L119.09 13.6467C119.09 13.6467 119.026 13.5669 118.752 12.9719C118.534 12.4972 118.459 12.3276 118.459 12.3276L119.18 11.0294Z" fill="#CA2C31"/>
<path d="M116.454 8.82214C116.454 8.82214 115.826 8.76964 115.138 9.63917C114.511 10.4332 114.216 11.726 114.103 12.0585C113.989 12.391 113.716 12.4589 113.807 12.6109C113.898 12.7629 114.291 12.7542 114.775 12.694C115.26 12.6339 115.675 12.4818 115.675 12.4818C115.675 12.4818 115.655 12.5343 115.585 12.6481C115.559 12.6885 115.472 12.7465 115.479 12.8067C115.494 12.95 116.721 12.9532 117.701 11.9448C118.76 10.8565 118.246 9.96402 118.246 9.96402L116.454 8.82214Z" fill="#F7D74D"/>
<path d="M116.643 9.32837C116.643 9.32837 115.966 9.36446 115.406 10.234C114.846 11.1035 114.586 12.1109 114.639 12.1787C114.692 12.2465 115.735 11.8692 115.986 11.9446C116.158 11.9971 116.069 12.171 116.115 12.217C116.153 12.2552 116.606 12.3198 117.339 11.5257C118.073 10.7316 117.899 9.61603 117.899 9.61603L116.643 9.32837Z" fill="#FBF0B4"/>
<path d="M116.976 8.14185C116.976 8.14185 116.636 8.44481 116.514 8.61872C116.393 8.79263 116.393 8.80794 116.4 8.86044C116.408 8.91294 116.534 9.48935 117.058 9.99466C117.701 10.6148 118.275 10.6979 118.358 10.6979C118.441 10.6979 118.994 10.0778 118.994 10.0778L116.976 8.14185Z" fill="#858585"/>
<path d="M118.48 9.97928C118.48 9.97928 119.031 10.3413 119.955 10.0307C121.218 9.60631 122.145 8.65693 123.292 7.45818C124.399 6.301 125.328 4.8649 125.328 4.8649L124.677 2.68506L118.48 9.97928Z" fill="#437687"/>
<path d="M120.437 8.78598L120.589 8.31348L120.969 8.36707C120.969 8.36707 121.259 8.50379 121.472 8.60332C121.686 8.70285 121.96 8.77832 121.96 8.77832L121.419 9.23551C121.419 9.23551 121.123 9.12394 120.908 9.02988C120.665 8.92379 120.437 8.78598 120.437 8.78598Z" fill="#3F545F"/>
<path d="M122.223 1.76514C122.223 1.76514 121.17 2.37545 119.662 3.80279C118.303 5.08904 117.295 6.25279 117.051 7.24264C116.848 8.0717 116.956 8.57483 117.419 9.11842C117.908 9.69373 118.481 9.9792 118.481 9.9792C118.481 9.9792 118.912 9.98576 120.71 8.60217C122.953 6.87514 124.75 3.98326 124.75 3.98326L122.223 1.76514Z" fill="#8DAFBF"/>
<path d="M124.395 4.57614C124.395 4.57614 123.479 4.18567 122.826 3.27458C122.178 2.37005 122.229 1.75864 122.229 1.75864C122.229 1.75864 122.771 1.33317 123.991 0.846452C124.811 0.519421 125.928 0.352077 126.296 0.624421C126.663 0.896764 126.044 2.26286 126.044 2.26286L124.916 4.44598L124.395 4.57614Z" fill="#D83F22"/>
<path d="M120.456 8.79353C120.456 8.79353 119.665 8.38993 119.162 7.81571C118.211 6.73181 118.014 5.54181 118.014 5.54181L118.492 4.98071C118.492 4.98071 118.611 6.24509 119.631 7.33774C120.296 8.04977 120.991 8.37571 120.991 8.37571C120.991 8.37571 120.852 8.49274 120.703 8.60649C120.608 8.67978 120.456 8.79353 120.456 8.79353Z" fill="#6896A5"/>
<path d="M125.328 4.86478C125.328 4.86478 125.802 4.29274 126.252 3.00321C126.88 1.20509 126.333 0.6604 126.333 0.6604C126.333 0.6604 126.148 1.51571 125.506 2.70462C124.991 3.65728 124.367 4.56399 124.367 4.56399C124.367 4.56399 124.711 4.71821 124.897 4.77181C125.131 4.83962 125.328 4.86478 125.328 4.86478Z" fill="#A02422"/>
<path d="M117.354 7.61886C117.496 7.75449 117.712 7.6123 117.853 7.2798C117.995 6.9473 117.993 6.76136 117.884 6.68261C117.748 6.58418 117.52 6.79964 117.421 6.99105C117.312 7.20324 117.247 7.51605 117.354 7.61886Z" fill="#B3E1EE"/>
<path d="M122.291 2.20166C122.291 2.20166 121.459 2.79994 120.571 3.61369C119.756 4.36072 119.216 4.94479 119.141 5.08041C119.063 5.22588 119.062 5.4315 119.123 5.5365C119.184 5.6415 119.32 5.69619 119.443 5.60432C119.567 5.51135 120.447 4.53791 121.242 3.84229C121.97 3.20572 122.531 2.80213 122.531 2.80213C122.531 2.80213 122.758 2.39963 122.721 2.30775C122.684 2.21479 122.291 2.20166 122.291 2.20166Z" fill="#B3E1EE"/>
<path d="M122.292 2.20153C122.292 2.20153 122.906 1.73013 123.576 1.39872C124.198 1.09028 124.817 0.833252 124.929 1.05638C125.035 1.26856 124.341 1.55731 123.731 1.94669C123.121 2.33606 122.533 2.80091 122.533 2.80091C122.533 2.80091 122.444 2.63685 122.386 2.48481C122.349 2.39227 122.317 2.29769 122.292 2.20153Z" fill="#ED6A65"/>
<path d="M122.799 4.29297C122.19 3.73188 121.342 3.88281 120.924 4.38156C120.495 4.89563 120.527 5.68094 121.034 6.15344C121.494 6.58219 122.35 6.67953 122.867 6.07797C123.326 5.54422 123.298 4.75125 122.799 4.29297Z" fill="#E1E1E1"/>
<path d="M121.239 4.57954C120.877 4.935 120.897 5.63938 121.328 5.96094C121.704 6.24204 122.238 6.22782 122.573 5.88547C122.907 5.54313 122.907 4.92079 122.593 4.59922C122.232 4.23063 121.654 4.17266 121.239 4.57954Z" fill="#3F545F"/>
<path d="M118.469 8.40964C118.469 8.40964 119.146 7.72276 119.22 7.79714C119.295 7.87151 119.285 8.28823 118.961 8.75198C118.636 9.21573 117.922 10.0415 117.357 10.5982C116.799 11.1462 116.012 11.7729 115.938 11.762C115.88 11.7532 115.645 11.6362 115.551 11.5224C115.459 11.4098 115.733 10.8771 115.844 10.701C115.955 10.5249 118.469 8.40964 118.469 8.40964Z" fill="#A02524"/>
<path d="M115.322 11.1397C115.313 11.2972 115.554 11.5269 115.554 11.5269L119.22 7.7983C119.22 7.7983 119.048 7.60471 118.543 7.91862C118.033 8.2358 117.587 8.61643 116.929 9.25408C116.011 10.1444 115.331 10.9822 115.322 11.1397Z" fill="#CA2C31"/>
<path d="M115.085 4.0413C114.963 4.16271 114.958 4.3574 115.093 4.46896C115.214 4.56849 115.41 4.50396 115.483 4.41427C115.556 4.32459 115.547 4.1299 115.45 4.03365C115.353 3.9363 115.159 3.96802 115.085 4.0413Z" fill="white"/>
<path opacity="0.5" d="M117.487 3.89906C117.395 4.00078 117.424 4.15172 117.51 4.2075C117.595 4.26328 117.723 4.25781 117.785 4.18125C117.841 4.11235 117.848 3.97453 117.762 3.88922C117.688 3.81594 117.546 3.83344 117.487 3.89906Z" fill="white"/>
<path d="M119.076 1.30032C119.076 1.30032 119.209 0.919695 119.288 0.91532C119.368 0.910945 119.483 1.29595 119.483 1.29595C119.483 1.29595 119.878 1.30032 119.904 1.35829C119.938 1.43266 119.651 1.68204 119.651 1.68204C119.651 1.68204 119.744 2.05391 119.7 2.09876C119.651 2.14798 119.311 1.9522 119.311 1.9522C119.311 1.9522 118.961 2.1961 118.885 2.12938C118.82 2.07141 118.957 1.67766 118.957 1.67766C118.957 1.67766 118.628 1.43813 118.646 1.37141C118.671 1.27735 119.076 1.30032 119.076 1.30032Z" fill="white"/>
<path d="M123.611 10.4265C123.743 10.4998 123.909 10.4582 123.97 10.3171C124.026 10.1914 123.923 10.0415 123.83 10.0011C123.737 9.96058 123.575 10.0142 123.515 10.1203C123.457 10.2253 123.531 10.3828 123.611 10.4265Z" fill="white"/>
<path d="M125.49 7.20126C125.414 7.08423 125.251 7.04595 125.145 7.14001C125.042 7.23188 125.067 7.37626 125.125 7.44954C125.183 7.52282 125.339 7.55017 125.433 7.49001C125.527 7.42985 125.536 7.27126 125.49 7.20126Z" fill="white"/>
</g>
<defs>
<clipPath id="clip0_18_968">
<rect width="14" height="14" fill="white" transform="translate(113)"/>
</clipPath>
</defs>
</svg>
