<svg width="123" height="12" viewBox="0 0 123 12" fill="none" xmlns="http://www.w3.org/2000/svg">
<path d="M5.53482 11.168C4.57349 11.168 3.74282 10.958 3.04282 10.538C2.35215 10.1087 1.81549 9.516 1.43282 8.76C1.05015 7.99467 0.858821 7.108 0.858821 6.1C0.858821 5.10133 1.05015 4.224 1.43282 3.468C1.81549 2.70267 2.35215 2.10533 3.04282 1.676C3.74282 1.24667 4.57349 1.032 5.53482 1.032C6.65482 1.032 7.56482 1.30267 8.26482 1.844C8.97415 2.376 9.42682 3.12267 9.62282 4.084H8.32082C8.17149 3.47733 7.86349 2.992 7.39682 2.628C6.93949 2.25467 6.31882 2.068 5.53482 2.068C4.83482 2.068 4.22349 2.23133 3.70082 2.558C3.17815 2.87533 2.77215 3.33733 2.48282 3.944C2.20282 4.54133 2.06282 5.26 2.06282 6.1C2.06282 6.94 2.20282 7.66333 2.48282 8.27C2.77215 8.86733 3.17815 9.32933 3.70082 9.656C4.22349 9.97333 4.83482 10.132 5.53482 10.132C6.31882 10.132 6.93949 9.95467 7.39682 9.6C7.86349 9.236 8.17149 8.75533 8.32082 8.158H9.62282C9.42682 9.10067 8.97415 9.838 8.26482 10.37C7.56482 10.902 6.65482 11.168 5.53482 11.168ZM16.745 11.168C15.7837 11.168 14.939 10.958 14.211 10.538C13.4923 10.1087 12.9277 9.51133 12.517 8.746C12.1157 7.98067 11.915 7.09867 11.915 6.1C11.915 5.10133 12.1157 4.224 12.517 3.468C12.9277 2.70267 13.4923 2.10533 14.211 1.676C14.939 1.24667 15.7837 1.032 16.745 1.032C17.7157 1.032 18.5603 1.24667 19.279 1.676C20.007 2.10533 20.5717 2.70267 20.973 3.468C21.3743 4.224 21.575 5.10133 21.575 6.1C21.575 7.09867 21.3743 7.98067 20.973 8.746C20.5717 9.51133 20.007 10.1087 19.279 10.538C18.5603 10.958 17.7157 11.168 16.745 11.168ZM16.745 10.132C17.4637 10.132 18.0937 9.97333 18.635 9.656C19.1857 9.32933 19.6103 8.86733 19.909 8.27C20.217 7.66333 20.371 6.94 20.371 6.1C20.371 5.26 20.217 4.54133 19.909 3.944C19.6103 3.34667 19.1857 2.88933 18.635 2.572C18.0937 2.24533 17.4637 2.082 16.745 2.082C16.0263 2.082 15.3917 2.24533 14.841 2.572C14.2997 2.88933 13.875 3.34667 13.567 3.944C13.2683 4.54133 13.119 5.26 13.119 6.1C13.119 6.94 13.2683 7.66333 13.567 8.27C13.875 8.86733 14.2997 9.32933 14.841 9.656C15.3917 9.97333 16.0263 10.132 16.745 10.132ZM24.2515 11V1.2H25.6235L29.1515 8.032L32.6515 1.2H34.0375V11H32.8615V3.3L29.5855 9.6H28.7035L25.4275 3.314V11H24.2515ZM37.085 11V1.2H38.261V11H37.085ZM41.3189 11V1.2H42.4949L47.7169 9.054V1.2H48.8929V11H47.7169L42.4949 3.146V11H41.3189ZM56.1653 11.168C55.2506 11.168 54.4479 10.958 53.7573 10.538C53.0666 10.1087 52.5299 9.516 52.1473 8.76C51.7646 7.99467 51.5733 7.11267 51.5733 6.114C51.5733 5.11533 51.7646 4.23333 52.1473 3.468C52.5393 2.70267 53.0899 2.10533 53.7993 1.676C54.5179 1.24667 55.3626 1.032 56.3333 1.032C57.4346 1.032 58.3493 1.298 59.0773 1.83C59.8146 2.362 60.2906 3.09467 60.5053 4.028H59.1473C59.0166 3.44 58.7039 2.97333 58.2093 2.628C57.7239 2.28267 57.0986 2.11 56.3333 2.11C55.6146 2.11 54.9893 2.27333 54.4573 2.6C53.9253 2.91733 53.5099 3.37467 53.2113 3.972C52.9219 4.56933 52.7773 5.28333 52.7773 6.114C52.7773 6.94467 52.9219 7.65867 53.2113 8.256C53.5006 8.85333 53.9019 9.31533 54.4153 9.642C54.9286 9.95933 55.5259 10.118 56.2073 10.118C57.2526 10.118 58.0413 9.81467 58.5733 9.208C59.1053 8.592 59.4086 7.752 59.4833 6.688H56.6553V5.764H60.6873V11H59.6093L59.5113 9.39C59.1566 9.95933 58.7226 10.398 58.2093 10.706C57.6959 11.014 57.0146 11.168 56.1653 11.168ZM71.3341 11.168C70.6154 11.168 69.9901 11.0373 69.4581 10.776C68.9261 10.5147 68.5154 10.1507 68.2261 9.684C67.9367 9.21733 67.7921 8.676 67.7921 8.06H69.0241C69.0241 8.44267 69.1127 8.79733 69.2901 9.124C69.4674 9.44133 69.7241 9.698 70.0601 9.894C70.4054 10.0807 70.8301 10.174 71.3341 10.174C71.9967 10.174 72.5101 10.0153 72.8741 9.698C73.2381 9.38067 73.4201 8.984 73.4201 8.508C73.4201 8.116 73.3361 7.80333 73.1681 7.57C73.0001 7.32733 72.7714 7.13133 72.4821 6.982C72.2021 6.83267 71.8754 6.702 71.5021 6.59C71.1381 6.478 70.7554 6.352 70.3541 6.212C69.5981 5.95067 69.0381 5.62867 68.6741 5.246C68.3101 4.854 68.1281 4.34533 68.1281 3.72C68.1187 3.19733 68.2401 2.73533 68.4921 2.334C68.7441 1.92333 69.0987 1.606 69.5561 1.382C70.0227 1.14867 70.5734 1.032 71.2081 1.032C71.8334 1.032 72.3747 1.14867 72.8321 1.382C73.2987 1.61533 73.6581 1.93733 73.9101 2.348C74.1714 2.75867 74.3067 3.22533 74.3161 3.748H73.0841C73.0841 3.47733 73.0141 3.21133 72.8741 2.95C72.7341 2.67933 72.5194 2.46 72.2301 2.292C71.9501 2.124 71.5954 2.04 71.1661 2.04C70.6341 2.03067 70.1954 2.166 69.8501 2.446C69.5141 2.726 69.3461 3.11333 69.3461 3.608C69.3461 4.028 69.4627 4.35 69.6961 4.574C69.9387 4.798 70.2747 4.98467 70.7041 5.134C71.1334 5.274 71.6281 5.43733 72.1881 5.624C72.6547 5.792 73.0747 5.988 73.4481 6.212C73.8214 6.436 74.1107 6.72533 74.3161 7.08C74.5307 7.43467 74.6381 7.88733 74.6381 8.438C74.6381 8.90467 74.5167 9.348 74.2741 9.768C74.0314 10.1787 73.6627 10.5147 73.1681 10.776C72.6827 11.0373 72.0714 11.168 71.3341 11.168ZM81.7378 11.168C80.7765 11.168 79.9318 10.958 79.2038 10.538C78.4851 10.1087 77.9205 9.51133 77.5098 8.746C77.1085 7.98067 76.9078 7.09867 76.9078 6.1C76.9078 5.10133 77.1085 4.224 77.5098 3.468C77.9205 2.70267 78.4851 2.10533 79.2038 1.676C79.9318 1.24667 80.7765 1.032 81.7378 1.032C82.7085 1.032 83.5531 1.24667 84.2718 1.676C84.9998 2.10533 85.5645 2.70267 85.9658 3.468C86.3671 4.224 86.5678 5.10133 86.5678 6.1C86.5678 7.09867 86.3671 7.98067 85.9658 8.746C85.5645 9.51133 84.9998 10.1087 84.2718 10.538C83.5531 10.958 82.7085 11.168 81.7378 11.168ZM81.7378 10.132C82.4565 10.132 83.0865 9.97333 83.6278 9.656C84.1785 9.32933 84.6031 8.86733 84.9018 8.27C85.2098 7.66333 85.3638 6.94 85.3638 6.1C85.3638 5.26 85.2098 4.54133 84.9018 3.944C84.6031 3.34667 84.1785 2.88933 83.6278 2.572C83.0865 2.24533 82.4565 2.082 81.7378 2.082C81.0191 2.082 80.3845 2.24533 79.8338 2.572C79.2925 2.88933 78.8678 3.34667 78.5598 3.944C78.2611 4.54133 78.1118 5.26 78.1118 6.1C78.1118 6.94 78.2611 7.66333 78.5598 8.27C78.8678 8.86733 79.2925 9.32933 79.8338 9.656C80.3845 9.97333 81.0191 10.132 81.7378 10.132ZM93.6963 11.168C92.735 11.168 91.8903 10.958 91.1623 10.538C90.4437 10.1087 89.879 9.51133 89.4683 8.746C89.067 7.98067 88.8663 7.09867 88.8663 6.1C88.8663 5.10133 89.067 4.224 89.4683 3.468C89.879 2.70267 90.4437 2.10533 91.1623 1.676C91.8903 1.24667 92.735 1.032 93.6963 1.032C94.667 1.032 95.5117 1.24667 96.2303 1.676C96.9583 2.10533 97.523 2.70267 97.9243 3.468C98.3257 4.224 98.5263 5.10133 98.5263 6.1C98.5263 7.09867 98.3257 7.98067 97.9243 8.746C97.523 9.51133 96.9583 10.1087 96.2303 10.538C95.5117 10.958 94.667 11.168 93.6963 11.168ZM93.6963 10.132C94.415 10.132 95.045 9.97333 95.5863 9.656C96.137 9.32933 96.5617 8.86733 96.8603 8.27C97.1683 7.66333 97.3223 6.94 97.3223 6.1C97.3223 5.26 97.1683 4.54133 96.8603 3.944C96.5617 3.34667 96.137 2.88933 95.5863 2.572C95.045 2.24533 94.415 2.082 93.6963 2.082C92.9777 2.082 92.343 2.24533 91.7923 2.572C91.251 2.88933 90.8263 3.34667 90.5183 3.944C90.2197 4.54133 90.0703 5.26 90.0703 6.1C90.0703 6.94 90.2197 7.66333 90.5183 8.27C90.8263 8.86733 91.251 9.32933 91.7923 9.656C92.343 9.97333 92.9777 10.132 93.6963 10.132ZM101.203 11V1.2H102.379L107.601 9.054V1.2H108.777V11H107.601L102.379 3.146V11H101.203Z" fill="#898A8C"/>
<g clip-path="url(#clip0_18_968)">
<path d="M111.354 6.72474L112.885 5.21536L115.494 4.75317L115.236 6.11817L111.71 7.20192L111.482 7.10349L111.354 6.72474Z" fill="#CA2C31"/>
<path d="M113.151 5.60251L111.488 7.11376L112.711 7.71001L114.568 6.7622V6.31501L114.948 5.29126L113.151 5.60251Z" fill="#A02422"/>
<path d="M117.086 8.2641L116.283 8.61285L115.524 10.2207C115.524 10.2207 116.192 11.6991 116.222 11.6991C116.252 11.6991 116.632 11.7291 116.632 11.7291L117.982 10.2197L118.323 7.6416L117.086 8.2641Z" fill="#A02422"/>
<path d="M116.297 9.45384C116.297 9.45384 116.744 9.3629 117.063 9.21103C117.382 9.05915 117.775 8.83228 117.775 8.83228L117.631 10.0913L116.22 11.6973C116.22 11.6973 116.165 11.6288 115.93 11.1188C115.744 10.712 115.679 10.5667 115.679 10.5667L116.297 9.45384Z" fill="#CA2C31"/>
<path d="M113.961 7.5618C113.961 7.5618 113.423 7.5168 112.833 8.26211C112.295 8.94274 112.043 10.0509 111.945 10.3359C111.848 10.6209 111.614 10.679 111.692 10.8093C111.77 10.9396 112.106 10.9321 112.522 10.8806C112.937 10.829 113.293 10.6987 113.293 10.6987C113.293 10.6987 113.275 10.7437 113.215 10.8412C113.194 10.8759 113.119 10.9256 113.124 10.9771C113.138 11.0999 114.189 11.1027 115.029 10.2384C115.937 9.30555 115.496 8.54055 115.496 8.54055L113.961 7.5618Z" fill="#F7D74D"/>
<path d="M114.123 7.99609C114.123 7.99609 113.542 8.02703 113.062 8.77234C112.582 9.51766 112.359 10.3811 112.405 10.4392C112.45 10.4973 113.345 10.1739 113.559 10.2386C113.707 10.2836 113.631 10.4327 113.67 10.472C113.703 10.5048 114.091 10.5602 114.719 9.87953C115.348 9.19891 115.199 8.24266 115.199 8.24266L114.123 7.99609Z" fill="#FBF0B4"/>
<path d="M114.408 6.97876C114.408 6.97876 114.116 7.23845 114.012 7.38751C113.908 7.53657 113.908 7.5497 113.915 7.5947C113.921 7.6397 114.029 8.13376 114.478 8.56688C115.029 9.09845 115.522 9.1697 115.593 9.1697C115.664 9.1697 116.138 8.63813 116.138 8.63813L114.408 6.97876Z" fill="#858585"/>
<path d="M115.697 8.5537C115.697 8.5537 116.17 8.86401 116.962 8.59776C118.045 8.23401 118.839 7.42026 119.822 6.39276C120.771 5.40089 121.567 4.16995 121.567 4.16995L121.009 2.30151L115.697 8.5537Z" fill="#437687"/>
<path d="M117.374 7.53098L117.504 7.12598L117.831 7.17191C117.831 7.17191 118.079 7.2891 118.262 7.37441C118.445 7.45973 118.68 7.52441 118.68 7.52441L118.216 7.91629C118.216 7.91629 117.963 7.82066 117.778 7.74004C117.57 7.6491 117.374 7.53098 117.374 7.53098Z" fill="#3F545F"/>
<path d="M118.905 1.51318C118.905 1.51318 118.003 2.03631 116.71 3.25975C115.545 4.36225 114.682 5.35975 114.473 6.20818C114.298 6.91881 114.391 7.35006 114.788 7.816C115.207 8.30912 115.698 8.55381 115.698 8.55381C115.698 8.55381 116.067 8.55943 117.608 7.3735C119.531 5.89318 121.072 3.41443 121.072 3.41443L118.905 1.51318Z" fill="#8DAFBF"/>
<path d="M120.767 3.92254C120.767 3.92254 119.982 3.58786 119.423 2.80692C118.867 2.03161 118.911 1.50754 118.911 1.50754C118.911 1.50754 119.376 1.14286 120.421 0.72567C121.124 0.445357 122.081 0.30192 122.396 0.535357C122.711 0.768795 122.181 1.93973 122.181 1.93973L121.214 3.81098L120.767 3.92254Z" fill="#D83F22"/>
<path d="M117.391 7.53766C117.391 7.53766 116.713 7.19172 116.282 6.69953C115.466 5.77047 115.298 4.75047 115.298 4.75047L115.707 4.26953C115.707 4.26953 115.809 5.35328 116.684 6.28984C117.254 6.90016 117.849 7.17953 117.849 7.17953C117.849 7.17953 117.73 7.27984 117.603 7.37734C117.521 7.44016 117.391 7.53766 117.391 7.53766Z" fill="#6896A5"/>
<path d="M121.567 4.17016C121.567 4.17016 121.973 3.67984 122.359 2.57453C122.897 1.03328 122.428 0.566406 122.428 0.566406C122.428 0.566406 122.27 1.29953 121.719 2.31859C121.278 3.13516 120.743 3.91234 120.743 3.91234C120.743 3.91234 121.038 4.04453 121.197 4.09047C121.398 4.14859 121.567 4.17016 121.567 4.17016Z" fill="#A02422"/>
<path d="M114.732 6.53066C114.854 6.64691 115.039 6.52504 115.16 6.24004C115.282 5.95504 115.28 5.79566 115.186 5.72816C115.07 5.64379 114.875 5.82848 114.79 5.99254C114.696 6.17441 114.641 6.44254 114.732 6.53066Z" fill="#B3E1EE"/>
<path d="M118.964 1.88721C118.964 1.88721 118.251 2.40002 117.489 3.09752C116.791 3.73783 116.328 4.23846 116.264 4.35471C116.197 4.47939 116.196 4.65564 116.248 4.74564C116.301 4.83564 116.417 4.88252 116.523 4.80377C116.629 4.72408 117.384 3.88971 118.065 3.29346C118.689 2.74783 119.169 2.40189 119.169 2.40189C119.169 2.40189 119.364 2.05689 119.333 1.97814C119.301 1.89846 118.964 1.88721 118.964 1.88721Z" fill="#B3E1EE"/>
<path d="M118.964 1.88724C118.964 1.88724 119.491 1.48318 120.065 1.19911C120.598 0.934738 121.129 0.714426 121.224 0.905676C121.315 1.08755 120.721 1.33505 120.198 1.6688C119.675 2.00255 119.171 2.40099 119.171 2.40099C119.171 2.40099 119.094 2.26036 119.045 2.13005C119.013 2.05073 118.986 1.96966 118.964 1.88724Z" fill="#ED6A65"/>
<path d="M119.399 3.67979C118.877 3.19886 118.15 3.32823 117.792 3.75573C117.425 4.19636 117.452 4.86948 117.886 5.27448C118.281 5.64198 119.015 5.72542 119.457 5.20979C119.851 4.75229 119.827 4.07261 119.399 3.67979Z" fill="#E1E1E1"/>
<path d="M118.062 3.92528C117.752 4.22997 117.769 4.83372 118.138 5.10934C118.461 5.35028 118.918 5.33809 119.205 5.04466C119.492 4.75122 119.492 4.21778 119.223 3.94216C118.914 3.62622 118.418 3.57653 118.062 3.92528Z" fill="#3F545F"/>
<path d="M115.688 7.20854C115.688 7.20854 116.268 6.61979 116.332 6.68354C116.395 6.74729 116.387 7.10448 116.109 7.50198C115.831 7.89948 115.219 8.60729 114.734 9.08448C114.256 9.55416 113.582 10.0914 113.518 10.082C113.468 10.0745 113.267 9.97416 113.186 9.87666C113.108 9.7801 113.343 9.32354 113.438 9.1726C113.533 9.02166 115.688 7.20854 115.688 7.20854Z" fill="#A02524"/>
<path d="M112.99 9.54846C112.983 9.68346 113.189 9.88034 113.189 9.88034L116.332 6.6844C116.332 6.6844 116.184 6.51846 115.751 6.78752C115.314 7.0594 114.932 7.38565 114.368 7.93221C113.581 8.69534 112.998 9.41346 112.99 9.54846Z" fill="#CA2C31"/>
<path d="M112.787 3.46411C112.683 3.56818 112.678 3.73505 112.794 3.83068C112.898 3.91599 113.065 3.86068 113.128 3.7838C113.191 3.70693 113.183 3.54005 113.1 3.45755C113.017 3.37411 112.851 3.4013 112.787 3.46411Z" fill="white"/>
<path opacity="0.5" d="M114.846 3.34226C114.767 3.42945 114.792 3.55883 114.865 3.60664C114.939 3.65445 115.048 3.64976 115.102 3.58414C115.149 3.52508 115.155 3.40695 115.082 3.33383C115.018 3.27101 114.896 3.28601 114.846 3.34226Z" fill="white"/>
<path d="M116.208 1.1147C116.208 1.1147 116.322 0.78845 116.39 0.7847C116.458 0.78095 116.557 1.11095 116.557 1.11095C116.557 1.11095 116.895 1.1147 116.918 1.16439C116.947 1.22814 116.701 1.44189 116.701 1.44189C116.701 1.44189 116.781 1.76064 116.743 1.79907C116.701 1.84126 116.409 1.67345 116.409 1.67345C116.409 1.67345 116.109 1.88251 116.045 1.82532C115.989 1.77564 116.106 1.43814 116.106 1.43814C116.106 1.43814 115.824 1.23282 115.839 1.17564C115.861 1.09501 116.208 1.1147 116.208 1.1147Z" fill="white"/>
<path d="M120.095 8.9373C120.208 9.00011 120.351 8.96449 120.403 8.84355C120.451 8.73574 120.363 8.6073 120.283 8.57261C120.204 8.53792 120.064 8.58386 120.013 8.6748C119.964 8.7648 120.026 8.8998 120.095 8.9373Z" fill="white"/>
<path d="M121.705 6.17251C121.641 6.07219 121.501 6.03938 121.41 6.12001C121.322 6.19876 121.343 6.32251 121.393 6.38532C121.443 6.44813 121.576 6.47157 121.657 6.42001C121.737 6.36845 121.745 6.23251 121.705 6.17251Z" fill="white"/>
</g>
<defs>
<clipPath id="clip0_18_968">
<rect width="12" height="12" fill="white" transform="translate(111)"/>
</clipPath>
</defs>
</svg>
