<svg width="19" height="19" viewBox="0 0 19 19" fill="none" xmlns="http://www.w3.org/2000/svg">
<path d="M6.28051 7.41597C8.72885 6.24503 10.6449 4.25797 11.7449 1.77416C11.0353 1.02901 10.1127 0.496764 9.11916 0.177416L8.58691 0C8.55143 0.0709662 8.51595 0.17742 8.51595 0.248386C7.66435 2.66124 5.92568 4.61281 3.5838 5.71278C1.95157 6.49341 0.745146 7.91274 0.177416 9.61593L0 10.1482C0.0709662 10.1837 0.177417 10.2191 0.248383 10.2191C0.922563 10.4675 1.59674 10.7869 2.23544 11.1772C3.12252 9.58044 4.54184 8.23208 6.28051 7.41597Z" fill="white"/>
<path d="M16.5706 7.55791C15.2577 9.54497 13.448 11.1417 11.2126 12.2062C9.40297 13.0578 8.01913 14.6545 7.38043 16.5706L7.20302 17.1738C7.8772 17.7771 8.69331 18.2383 9.58039 18.5222L10.1126 18.6996C10.1481 18.6287 10.1836 18.5222 10.1836 18.4512C11.0352 16.0384 12.7739 14.0868 15.1158 12.9868C16.748 12.2062 17.9899 10.7869 18.5221 9.0837L18.6995 8.55145C17.9544 8.33855 17.2447 7.98371 16.5706 7.55791Z" fill="white"/>
<path d="M5.78384 15.3287C6.67092 13.1997 8.30314 11.4611 10.3966 10.4675C12.3127 9.54497 13.9095 8.12565 15.0094 6.38697C14.1933 5.60635 13.5192 4.71926 13.0224 3.65477C11.7095 6.06762 9.6515 8.0192 7.1322 9.22563C5.67739 9.8998 4.50645 11.0708 3.79678 12.4901C4.57741 13.2352 5.21611 14.1578 5.71287 15.1868C5.71287 15.1868 5.74835 15.2578 5.78384 15.3287Z" fill="white"/>
</svg>
